<?xml version="1.0" encoding="UTF-8"?><svg id="b" xmlns="http://www.w3.org/2000/svg" viewBox="0 0 107.74615 107.74615"><g id="c"><g><g opacity="0"><rect y="0" width="107.74615" height="107.74615" rx="18.99696" ry="18.99696" fill="#fff"/></g><g><g><circle cx="50.43583" cy="68.04125" r="24.51927" fill="#dadaf9"/><g><g><rect x="41.53787" y="83.4857" width="20.60068" height="5.89254" rx="2.94627" ry="2.94627" fill="#4a49a2"/><rect x="41.53787" y="74.76834" width="20.60068" height="5.89254" rx="2.94627" ry="2.94627" fill="#4a49a2"/><rect x="41.53787" y="66.05098" width="20.60068" height="5.89254" rx="2.94627" ry="2.94627" fill="#4a49a2"/><rect x="41.53787" y="57.33362" width="20.60068" height="5.89254" rx="2.94627" ry="2.94627" fill="#4a49a2"/></g><g><rect x="41.53787" y="48.23649" width="20.60068" height="5.89254" rx="2.94627" ry="2.94627" fill="#4a49a2"/><rect x="41.53787" y="39.51913" width="20.60068" height="5.89254" rx="2.94627" ry="2.94627" fill="#4a49a2"/><rect x="41.53787" y="30.80177" width="20.60068" height="5.89254" rx="2.94627" ry="2.94627" fill="#4a49a2"/></g></g><g><g><rect x="18.01911" y="83.4857" width="20.60068" height="5.89254" rx="2.94627" ry="2.94627" fill="#4a49a2"/><rect x="18.01911" y="74.76834" width="20.60068" height="5.89254" rx="2.94627" ry="2.94627" fill="#4a49a2"/><rect x="18.01911" y="66.05098" width="20.60068" height="5.89254" rx="2.94627" ry="2.94627" fill="#4a49a2"/><rect x="18.01911" y="57.33362" width="20.60068" height="5.89254" rx="2.94627" ry="2.94627" fill="#4a49a2"/></g><rect x="18.01911" y="48.23649" width="20.60068" height="5.89254" rx="2.94627" ry="2.94627" fill="#4a49a2"/></g><g><rect x="65.51911" y="83.4857" width="20.60068" height="5.89254" rx="2.94627" ry="2.94627" fill="#4a49a2"/><rect x="65.51911" y="74.76834" width="20.60068" height="5.89254" rx="2.94627" ry="2.94627" fill="#4a49a2"/><rect x="65.51911" y="66.05098" width="20.60068" height="5.89254" rx="2.94627" ry="2.94627" fill="#4a49a2"/></g></g><g><line x1="83.39364" y1="34.68199" x2="83.39364" y2="56.14136" fill="none" stroke="#4a49a2" stroke-linecap="round" stroke-linejoin="round" stroke-width="3.90956"/><line x1="89.72704" y1="45.4112" x2="77.06038" y2="45.4112" fill="none" stroke="#4a49a2" stroke-linecap="round" stroke-linejoin="round" stroke-width="3.90956"/></g><g><line x1="27.81338" y1="15.18563" x2="27.81338" y2="36.645" fill="none" stroke="#4a49a2" stroke-linecap="round" stroke-linejoin="round" stroke-width="3.90956"/><line x1="34.14678" y1="25.91484" x2="21.48011" y2="25.91484" fill="none" stroke="#4a49a2" stroke-linecap="round" stroke-linejoin="round" stroke-width="3.90956"/></g></g></g></g></svg>