<?xml version="1.0" encoding="UTF-8"?><svg id="b" xmlns="http://www.w3.org/2000/svg" viewBox="0 0 107.74615 107.74615"><g id="c"><g><g opacity="0"><rect width="107.74615" height="107.74615" rx="18.99696" ry="18.99696" fill="#fff"/></g><g><g><circle cx="60.96512" cy="48.22418" r="24.51927" fill="#dadaf9"/><circle cx="40.39485" cy="36.9464" r="17.11111" fill="none" stroke="#4a49a2" stroke-linecap="round" stroke-linejoin="round" stroke-width="3.90956"/><path d="M40.39482,54.98568h.00005c14.31806,0,25.94252,11.62445,25.94252,25.94252v8.27971H14.45231v-8.27971c0-14.31806,11.62445-25.94252,25.94252-25.94252Z" fill="none" stroke="#4a49a2" stroke-linecap="round" stroke-linejoin="round" stroke-width="3.90956"/><polyline points="40.39482 54.98568 32.49689 79.50494 40.39482 89.2079" fill="none" stroke="#4a49a2" stroke-linecap="round" stroke-linejoin="round" stroke-width="3.90956"/><polyline points="41.05246 54.98568 48.95039 79.50494 41.05246 89.2079" fill="none" stroke="#4a49a2" stroke-linecap="round" stroke-linejoin="round" stroke-width="3.90956"/></g><path d="M79.47866,18.53826c-7.62988,0-13.81519,6.18524-13.81519,13.81519,0,4.17902,1.86328,7.9162,4.79541,10.44952l-4.12158,7.53235,9.81543-4.58667c1.06714,.26428,2.17725,.41998,3.32593,.41998,7.62988,0,13.81519-6.18524,13.81519-13.81519s-6.1853-13.81519-13.81519-13.81519Z" fill="none" stroke="#4a49a2" stroke-linecap="round" stroke-linejoin="round" stroke-width="3.90956"/></g><g><line x1="73.47866" y1="28.55603" x2="73.47866" y2="34.88936" fill="none" stroke="#4a49a2" stroke-linecap="round" stroke-linejoin="round" stroke-width="3.90956"/><line x1="79.47866" y1="32.55603" x2="79.47866" y2="38.88936" fill="none" stroke="#4a49a2" stroke-linecap="round" stroke-linejoin="round" stroke-width="3.90956"/><line x1="85.47866" y1="28.55603" x2="85.47866" y2="34.88936" fill="none" stroke="#4a49a2" stroke-linecap="round" stroke-linejoin="round" stroke-width="3.90956"/></g></g></g></svg>